<?xml version="1.0" encoding="UTF-8"?>
<svg width="44px" height="44px" viewBox="0 0 44 44" version="1.1" xmlns="http://www.w3.org/2000/svg" xmlns:xlink="http://www.w3.org/1999/xlink">
    <title>buymeacoffee_dark</title>
    <g id="Page-1" stroke="none" stroke-width="1" fill="none" fill-rule="evenodd">
        <g id="buymeacoffee_dark">
            <rect id="Rectangle" x="0" y="0" width="44" height="44"></rect>
            <path d="M33.4493899,10.5755948 L33.4211899,10.5589868 L33.3559099,10.5390668 C33.3821899,10.5612428 33.4150699,10.5740948 33.4493899,10.5755948 Z" id="Path" fill="#000000" fill-rule="nonzero"></path>
            <path d="M33.8620699,13.5155948 L33.8305099,13.5244748 L33.8620699,13.5155948 Z" id="Path" fill="#000000" fill-rule="nonzero"></path>
            <path d="M33.4569499,10.5554108 C33.4537099,10.5549908 33.4504699,10.5542228 33.4473499,10.5531308 C33.4472299,10.5552548 33.4472299,10.5573908 33.4473499,10.5595148 C33.4509499,10.5590588 33.4541899,10.5576308 33.4569499,10.5554108 Z" id="Path" fill="#000000" fill-rule="nonzero"></path>
            <path d="M33.8339899,13.4995148 L33.8816299,13.4723948 L33.8992699,13.4624348 L33.9153499,13.4452748 C33.8851099,13.4583548 33.8576299,13.4767148 33.8339899,13.4995148 Z" id="Path" fill="#000000" fill-rule="nonzero"></path>
            <path d="M33.5288299,10.6333148 L33.4823899,10.5890348 L33.4508299,10.5718748 C33.4677499,10.6017908 33.4957099,10.6238588 33.5288299,10.6333148 Z" id="Path" fill="#000000" fill-rule="nonzero"></path>
            <path d="M21.8290699,39.1562348 C21.7918699,39.1723148 21.7593499,39.1973948 21.7343899,39.2293148 L21.7636699,39.2104748 C21.7835899,39.1922348 21.8119099,39.1706348 21.8290699,39.1562348 Z" id="Path" fill="#000000" fill-rule="nonzero"></path>
            <path d="M28.6283899,37.8189548 C28.6283899,37.7768348 28.6078699,37.7846348 28.6129099,37.9340348 C28.6129099,37.9219148 28.6178299,37.9096748 28.6201099,37.8981548 C28.6228699,37.8715148 28.6250299,37.8454748 28.6283899,37.8189548 Z" id="Path" fill="#000000" fill-rule="nonzero"></path>
            <path d="M27.9227899,39.1562348 C27.8855899,39.1723148 27.8530699,39.1973948 27.8281099,39.2293148 L27.8575099,39.2104748 C27.8774299,39.1922348 27.9056299,39.1706348 27.9227899,39.1562348 Z" id="Path" fill="#000000" fill-rule="nonzero"></path>
            <path d="M17.0468899,39.4792748 C17.0187019,39.4547948 16.9841779,39.4387148 16.9472659,39.4328348 C16.9771579,39.4472348 17.0070379,39.4616348 17.0269699,39.4726748 L17.0468899,39.4792748 Z" id="Path" fill="#000000" fill-rule="nonzero"></path>
            <path d="M15.9752419,38.4458348 C15.9708259,38.4022748 15.9574459,38.3600348 15.9359419,38.3218748 C15.9511699,38.3615948 15.9639259,38.4022748 15.9741259,38.4436748 L15.9752419,38.4458348 Z" id="Path" fill="#000000" fill-rule="nonzero"></path>
            <path d="M23.2021099,19.9995548 C21.7243099,20.6321948 20.0471899,21.3495548 17.8735819,21.3495548 C16.9643059,21.3476348 16.0594459,21.2229548 15.1835899,20.9786348 L16.6868899,36.4129148 C16.7400979,37.0580348 17.0339779,37.6594748 17.5101739,38.0979548 C17.9863579,38.5364348 18.6100219,38.7797948 19.2573499,38.7796748 C19.2573499,38.7796748 21.3887899,38.8903148 22.1000299,38.8903148 C22.8656299,38.8903148 25.1608699,38.7796748 25.1608699,38.7796748 C25.8081499,38.7796748 26.4316699,38.5361948 26.9077099,38.0978348 C27.3837499,37.6593548 27.6776299,37.0579148 27.7307899,36.4129148 L29.3409499,19.3574348 C28.6214299,19.1116748 27.8951899,18.9484736 27.0765499,18.9484736 C25.6607899,18.9478748 24.5199499,19.4355548 23.2021099,19.9995548 Z" id="Path" fill="#FFDD00" fill-rule="nonzero"></path>
            <path d="M10.5277339,13.4265548 L10.5531979,13.4503148 L10.5698059,13.4602748 C10.5570139,13.4476748 10.5429139,13.4362748 10.5277339,13.4265548 Z" id="Path" fill="#000000" fill-rule="nonzero"></path>
            <path d="M36.2938699,11.9965868 L36.0675499,10.8547268 C35.8643899,9.83020276 35.4033499,8.86213876 34.3516699,8.49184276 C34.0145899,8.37340276 33.6321499,8.32247476 33.3736699,8.07727876 C33.1151899,7.83208276 33.0387499,7.45127476 32.9789899,7.09815076 C32.8683499,6.44999476 32.7643099,5.80129876 32.6507899,5.15427076 C32.5528699,4.59799876 32.4753499,3.97309876 32.2201099,3.46277476 C31.8880699,2.77755076 31.1989099,2.37682276 30.5137099,2.11169476 C30.1625899,1.98062116 29.8042699,1.86974116 29.4405499,1.77959596 C27.7285099,1.32794236 25.9286299,1.16189356 24.1673899,1.06724596 C22.0533499,0.950597561 19.9337899,0.985741961 17.8248259,1.17241036 C16.2551059,1.31521156 14.6018179,1.48790356 13.1101459,2.03088676 C12.5649499,2.22959476 12.0031459,2.46814276 11.5885819,2.88935476 C11.0799139,3.40687876 10.9138699,4.20723076 11.2852699,4.85260276 C11.5492819,5.31090676 11.9965099,5.63470276 12.4708579,5.84890276 C13.0887139,6.12490276 13.7339779,6.33491476 14.3959219,6.47545876 C16.2390619,6.88283476 18.1480699,7.04279476 20.0311099,7.11087076 C22.1181499,7.19511076 24.2085499,7.12684276 26.2856299,6.90663076 C26.7992299,6.85018276 27.3119899,6.78246676 27.8237899,6.70350676 C28.4265499,6.61107076 28.8134299,5.82288676 28.6357099,5.27381476 C28.4231899,4.61737876 27.8519899,4.36276276 27.2060299,4.46183476 C27.1108699,4.47678676 27.0161899,4.49062276 26.9210299,4.50445876 L26.8523899,4.51441876 C26.6335099,4.54210276 26.4147499,4.56792676 26.1958699,4.59191476 C25.7439499,4.64062276 25.2907099,4.68047476 24.8365099,4.71147076 C23.8191499,4.78231876 22.7991499,4.81497076 21.7795099,4.81662676 C20.7777499,4.81662676 19.7753899,4.78840276 18.7757419,4.72253476 C18.3196579,4.69264276 17.8646779,4.65463876 17.4108139,4.60851076 C17.2043539,4.58693476 16.9984579,4.56424276 16.7925619,4.53877876 L16.5966139,4.51386676 L16.5540019,4.50778276 L16.3508659,4.47844276 C15.9357499,4.41589876 15.5206219,4.34394676 15.1099219,4.25704276 C15.0684859,4.24785076 15.0314179,4.22479876 15.0048499,4.19169076 C14.9782819,4.15858276 14.9637979,4.11739876 14.9637979,4.07494276 C14.9637979,4.03249876 14.9782819,3.99131476 15.0048499,3.95820676 C15.0314179,3.92509876 15.0684859,3.90203476 15.1099219,3.89284276 L15.1176739,3.89284276 C15.4735699,3.81701476 15.8322379,3.75226276 16.1920099,3.69580276 C16.3119379,3.67698676 16.4322259,3.65853076 16.5528979,3.64044676 L16.5562099,3.64044676 C16.7814859,3.62550676 17.0078659,3.58510276 17.2320379,3.55853476 C19.1823499,3.35566276 21.1443499,3.28650676 23.1040699,3.35152276 C24.0555499,3.37920676 25.0064299,3.43510276 25.9534699,3.53141476 C26.1571099,3.55245076 26.3597899,3.57459076 26.5623499,3.59949076 C26.6398699,3.60889876 26.7178699,3.61997476 26.7958699,3.62938276 L26.9530699,3.65207476 C27.4113499,3.72034276 27.8672299,3.80317876 28.3208299,3.90059476 C28.9927099,4.04671876 29.8556299,4.09432276 30.1545499,4.83047476 C30.2497099,5.06404276 30.2929099,5.32363876 30.3454699,5.56883476 L30.4124299,5.88155476 C30.4142299,5.88717076 30.4154299,5.89290676 30.4162699,5.89871476 C30.5746699,6.63671476 30.7330699,7.37470276 30.8918299,8.11270276 C30.9033499,8.16721876 30.9037099,8.22354676 30.8925499,8.27818276 C30.8815099,8.33280676 30.8591899,8.38456276 30.8272699,8.43021076 C30.7952299,8.47585876 30.7541899,8.51442676 30.7066699,8.54351476 C30.6590299,8.57259076 30.6059899,8.59156276 30.5507899,8.59923076 L30.5463499,8.59923076 L30.4495099,8.61251476 L30.3537499,8.62524676 C30.0505099,8.66472676 29.7467899,8.70162676 29.4427099,8.73594676 C28.8437899,8.80420276 28.2440299,8.86324276 27.6433099,8.91305476 C26.4495499,9.01231876 25.2535099,9.07745476 24.0549499,9.10845076 C23.4442699,9.12467476 22.8338299,9.13224676 22.2235099,9.13114276 C19.7941099,9.12922276 17.3669779,8.98803076 14.9538379,8.70826276 C14.6925859,8.67726676 14.4313459,8.64406276 14.1700939,8.61029476 C14.3726659,8.63631076 14.0228659,8.59037476 13.9520179,8.58041476 C13.7859619,8.55715876 13.6199179,8.53299076 13.4538619,8.50789876 C12.8964979,8.42431876 12.3424459,8.32137076 11.7861859,8.23115476 C11.1136819,8.12045476 10.4705179,8.17579876 9.86222591,8.50789876 C9.36290591,8.78113876 8.9587819,9.20013076 8.7037579,9.70899076 C8.4414019,10.2514148 8.3633539,10.8419948 8.2460179,11.4248348 C8.1286747,12.0076628 7.94602031,12.6347708 8.01520751,13.2331148 C8.1640975,14.5244348 9.06685391,15.5738348 10.3653499,15.8085548 C11.5869259,16.0299548 12.8151259,16.2092348 14.0466619,16.3619948 C18.8843899,16.9545548 23.7717499,17.0253548 28.6246699,16.5734348 C29.0198299,16.5365948 29.4145099,16.4962748 29.8085899,16.4528348 C29.9317099,16.4392748 30.0562699,16.4534348 30.1731499,16.4943548 C30.2900299,16.5351548 30.3963499,16.6016348 30.4841899,16.6888748 C30.5720299,16.7761148 30.6393499,16.8819548 30.6809899,16.9984748 C30.7227499,17.1151148 30.7377499,17.2395548 30.7251499,17.3627948 L30.6022699,18.5571548 C30.3547099,20.9708348 30.1071499,23.3842748 29.8594699,25.7974748 C29.6012299,28.3317548 29.3411899,30.8657948 29.0795899,33.3997148 C29.0057899,34.1133548 28.9319899,34.8268748 28.8581899,35.5401548 C28.7873899,36.2425148 28.7774299,36.9670748 28.6439899,37.6611548 C28.4337499,38.7526748 27.6947899,39.4228748 26.6165899,39.6681548 C25.6287499,39.8929148 24.6196699,40.0108748 23.6066299,40.0201148 C22.4835499,40.0262348 21.3610699,39.9764348 20.2381099,39.9824348 C19.0391899,39.9891548 17.5707739,39.8783948 16.6453219,38.9861948 C15.8322379,38.2024748 15.7198819,36.9753548 15.6091819,35.9143148 C15.4615819,34.5094748 15.3152779,33.1048748 15.1702579,31.7005148 L14.3566219,23.8912748 L13.8302419,18.8383148 C13.8213859,18.7547948 13.8125299,18.6723548 13.8042259,18.5882348 C13.7411299,17.9854748 13.3143859,17.3954348 12.6418819,17.4257948 C12.0662539,17.4513548 11.4120139,17.9405948 11.4795499,18.5882348 L11.8697539,22.3342748 L12.6767539,30.0831548 C12.9066379,32.2843148 13.1359699,34.4857148 13.3647499,36.6874748 C13.4090299,37.1092748 13.4505379,37.5321548 13.4970379,37.9539548 C13.7499859,40.2586748 15.5100979,41.5006748 17.6897779,41.8505948 C18.9628219,42.0553148 20.2669099,42.0974348 21.5587099,42.1184348 C23.2148299,42.1449548 24.8873899,42.2086748 26.5163899,41.9086748 C28.9301899,41.4658748 30.7412299,39.8540348 30.9997099,37.3539548 C31.0735099,36.6321548 31.1473099,35.9102348 31.2211099,35.1880748 C31.4665099,32.7999548 31.7115499,30.4115948 31.9561099,28.0231148 L32.7565099,20.2187948 L33.1234699,16.6420748 C33.1417099,16.4647148 33.2167099,16.2980348 33.3370699,16.1665148 C33.4574299,16.0349948 33.6170299,15.9458348 33.7921099,15.9119948 C34.4823499,15.7774748 35.1421099,15.5477948 35.6330299,15.0225548 C36.4145899,14.1862748 36.5701099,13.0958348 36.2938699,11.9965868 Z M10.3299259,12.7681628 C10.3404499,12.7631828 10.3210699,12.8534348 10.3127779,12.8954348 C10.3111099,12.8318348 10.3144339,12.7753628 10.3299259,12.7681628 Z M33.7599499,13.3199948 C33.5120299,13.5557948 33.1384699,13.6653548 32.7692299,13.7201948 C28.6291099,14.3345948 24.4286299,14.6456348 20.2430299,14.5083548 C17.2475299,14.4059948 14.2835539,14.0733548 11.3179219,13.6543148 C11.0273299,13.6133948 10.7124019,13.5602348 10.5125899,13.3460348 C10.1362099,12.9419948 10.3210699,12.1283228 10.4190379,11.6401388 C10.5087139,11.1929108 10.6802899,10.5967988 11.2122019,10.5331388 C12.0424459,10.4357348 13.0066459,10.7860988 13.8280339,10.9106348 C14.8169419,11.0615468 15.8095459,11.1823988 16.8058459,11.2731668 C21.0578299,11.6606228 25.3811899,11.6002868 29.6143099,11.0335028 C30.3859099,10.9298228 31.1546299,10.8093428 31.9207099,10.6720748 C32.6031499,10.5497468 33.3598699,10.3200548 33.7721899,11.0268668 C34.0550299,11.5084028 34.0927099,12.1526708 34.0489099,12.6967628 C34.0354699,12.9338348 33.9319099,13.1567948 33.7594699,13.3199948 L33.7599499,13.3199948 Z" id="Shape" fill="#959495" fill-rule="nonzero"></path>
        </g>
    </g>
</svg>