<?xml version="1.0" encoding="UTF-8"?>
<svg width="485px" height="191px" viewBox="0 0 485 191" version="1.1" xmlns="http://www.w3.org/2000/svg" xmlns:xlink="http://www.w3.org/1999/xlink">
    <title>Group 2</title>
    <g id="Page-1" stroke="none" stroke-width="1" fill="none" fill-rule="evenodd">
        <g id="Group-2" transform="translate(0.822248, 1.114394)" stroke="#979797">
            <path d="M18.1777518,102.885606 C81.0110852,62.8856064 135.261085,45.4689397 180.927752,50.6356064 C249.427752,58.3856064 249.427752,132.135606 318.177752,139.135606 C364.011085,143.802273 412.761085,127.885606 464.427752,91.3856064" id="Line-3" stroke-linecap="square"></path>
            <path d="M18.1777518,52.9184299 C49.5066799,50.6002797 74.977528,70.9237063 78.7617298,96.2923737 C82.5459317,121.661041 63.3157484,142.050889 39.5574983,139.924308 C15.7992482,137.797726 -3.39476986,113.522338 0.505878568,83.9087528 C4.406527,54.2951679 30.0072578,30.096776 61.5671949,28.2035168 C93.127132,26.3102576 118.781631,46.9415832 122.808204,72.7859264 C126.834777,98.6302696 107.794297,119.364064 84.2933187,117.770767 C60.7923406,116.17747 41.8124476,92.2796379 45.9734264,63.2719705 C50.1344052,34.264303 75.9559622,10.4939431 107.775169,9.29007163 C139.594375,8.08620016 165.473179,29.2045127 169.753586,55.833223 C174.033993,82.4619333 155.218549,103.748898 131.960651,103.048943 C108.702753,102.348988 89.9625962,79.0821641 94.3321214,51.09097 C98.7016465,23.0997759 124.737358,0.054974867 156.727007,0 C188.716656,-0.0547695497 214.81123,21.8943827 219.190193,49.8112128 C223.569155,77.728043 204.966583,99.8646746 181.677566,100.690576 C158.388549,101.516477 139.826304,79.2016203 143.960529,53.0724096 C148.094754,26.9431988 174.239725,5.16743412 205.686178,7.2773549 C237.132631,9.38727567 263.10945,32.9990648 266.604418,63.2455224 C270.099386,93.49198 251.003665,117.713272 226.577553,120.750761 C202.15144,123.788251 182.684552,103.754504 185.626413,79.4227476 C188.568273,55.0909916 213.520539,35.3938781 243.960765,38.7399747 C274.40099,42.0860714 299.122051,67.324921 302.017114,98.2240469 C304.912178,129.123173 284.793556,154.461619 260.284015,157.585591 C235.774474,160.709563 215.703785,141.312141 219.09559,116.503547 C222.487394,91.6949526 247.369506,72.1820668 278.709663,74.4645609 C310.049821,76.7470549 335.261123,101.670437 339.32558,130.923558 C343.390037,160.176679 324.241541,184.605361 300.918444,185.60357 C277.595347,186.601779 258.739351,165.639649 263.104478,138.475478 C267.469606,111.311308 293.499197,89.6763458 325.486857,89.736814 C357.474516,89.7972821 383.564059,112.562663 387.944384,139.875973 C392.32471,167.189282 373.683059,189.647552 350.435635,189.038816 C327.188211,188.43008 308.54101,165.848491 312.836896,137.340286 C317.132783,108.832082 343.19874,85.9688369 375.022341,84.7789491 C406.845943,83.5890612 432.863846,105.207353 437.01326,131.361872 C441.162674,157.516392 422.38236,178.895082 398.847757,177.228909 C375.313154,175.562735 356.455704,151.988112 360.432229,122.522838 C364.408755,93.057564 390.231437,69.2851096 421.709354,67.2394248 C453.187272,65.1937399 478.920194,85.9990702 482.717084,111.388309 C486.513974,136.777547 467.429357,157.430818 443.54894,155.078751 C419.668523,152.726683 400.524655,128.491904 404.149856,98.4218747 C407.775058,68.3518456 436.831642,41.4184299 464.427752,41.4184299" id="Path" stroke-linecap="round"></path>
        </g>
    </g>
</svg>