<?xml version="1.0" encoding="UTF-8"?>
<svg width="104px" height="118px" viewBox="0 0 104 118" version="1.1" xmlns="http://www.w3.org/2000/svg" xmlns:xlink="http://www.w3.org/1999/xlink">
    <title>Group 8</title>
    <g id="Page-1" stroke="none" stroke-width="1" fill="none" fill-rule="evenodd">
        <g id="Group-8" transform="translate(0.422015, 0.350947)">
            <g id="Group-4" opacity="0.3" transform="translate(51.577985, 58.649053) rotate(-15.000000) translate(-51.577985, -58.649053) translate(11.577985, 8.649053)">
                <polygon id="Rectangle" fill="#67646A" points="13.3333333 -2.77555756e-16 26.6666667 -2.77555756e-16 26.6666667 6.83333333 53.3333333 6.66666667 53.3333333 0 66.6666667 0 66.6666667 13.3333333 80 13.3333333 80 26.6666667 66.6666667 26.6666667 66.6666667 33.3333333 53.3333333 33.3333333 53.3333333 40 66.6666667 40 66.6666667 46.6666667 80 46.6666667 80 53.3333333 66.6666667 53.3333333 66.6666667 46.6666667 53.3333333 46.6666667 53.3333333 73.3333333 26.6666667 73.3333333 26.6666667 46.6666667 13.3333333 46.6666667 13.3333333 53.3333333 2.77555756e-16 53.3333333 2.77555756e-16 46.6666667 13.3333333 46.6666667 13.3333333 40 26.6666667 40 26.6666667 33.3333333 13.3333333 33.3333333 13.3333333 26.6666667 0 26.6666667 0 13.3333333 13.3333333 13.3333333"></polygon>
                <path d="M13.3333333,13.3333333 L26.6666667,13.3333333 L26.6666667,26.6666667 L13.3333333,26.6666667 Z M53.3333333,13.3333333 L66.6666667,13.3333333 L66.6666667,26.6666667 L53.3333333,26.6666667 Z" id="Combined-Shape" fill="#0C0100"></path>
                <path d="M0,53.3333333 L13.3333333,53.3333333 L13.3333333,60 L0,60 Z M66.6666667,53.3333333 L80,53.3333333 L80,60 L66.6666667,60 Z M26.6666667,46.6666667 L53.3333333,46.6666667 L53.3333333,53.3333333 L26.6666667,53.3333333 Z M26.6666667,60 L53.3333333,60 L53.3333333,66.6666667 L26.6666667,66.6666667 Z M26.6666667,73.3333333 L53.3333333,73.3333333 L53.3333333,80 L26.6666667,80 Z M0,93.3333333 L26.6666667,93.3333333 L26.6666667,100 L0,100 Z M53.3333333,93.3333333 L80,93.3333333 L80,100 L53.3333333,100 Z" id="Combined-Shape" fill="#CDC6D2"></path>
                <path d="M13.3333333,73.3333333 L26.6666667,73.3333333 L26.6666667,93.3333333 L13.3333333,93.3333333 Z M53.3333333,73.3333333 L66.6666667,73.3333333 L66.6666667,93.3333333 L53.3333333,93.3333333 Z" id="Combined-Shape" fill="#8F6418"></path>
            </g>
            <path d="M38.6370331,10.3527618 C60.143676,5.26206951 82.382827,22.9977401 88.605142,48.7276564 C94.8274569,74.4575727 83.1689475,98.3064339 63.4405249,102.920653 C43.7121023,107.534873 23.3973055,91.2148605 17.7705814,67.7077197 C12.1438573,44.2005788 22.8436562,22.5398906 40.7938584,18.4021437 C58.7440607,14.2643968 77.1345033,29.1687513 82.1656365,50.4531167 C87.1967697,71.7374821 77.4556814,91.2099974 61.2836995,94.8712716 C45.1117176,98.5325458 28.6456292,85.0438494 24.2100869,65.9822594 C19.7745446,46.9206694 28.5569222,29.636327 42.9506838,26.4515256 C57.3444454,23.2667241 71.8861795,35.3397624 75.726131,52.178577 C79.5660824,69.0173916 71.7424154,84.113561 59.1268741,86.8218897 C46.5113329,89.5302185 33.893953,78.8728382 30.6495924,64.2567991 C27.4052318,49.64076 34.2701883,36.7327635 45.1075092,34.5009075 C55.9448301,32.2690514 66.6378558,41.5107736 69.2866255,53.9040373 C71.9353951,66.297301 66.0291493,77.0171245 56.9700487,78.7725078 C47.9109482,80.5278912 39.1422767,72.7018271 37.0890979,62.5313388 C35.0359191,52.3608505 39.9834543,43.8292 47.2643346,42.5502893 C54.5452148,41.2713787 61.389532,47.6817848 62.8471199,55.6294976 C64.3047079,63.5772104 60.3158832,69.920688 54.8132234,70.7231259 C49.3105635,71.5255639 44.3906005,66.5308159 43.5286034,60.8058785 C42.6666064,55.0809411 45.6967204,50.9256365 49.4211599,50.5996712 C53.1455995,50.273706 56.1412083,53.8527959 56.4076144,57.3549579 C56.6740206,60.8571199 54.6026172,62.8242515 52.656398,62.6737441 C50.7101788,62.5232366 49.6389242,60.3598047 49.9681089,59.0804182 C50.2972937,57.8010316 51.548416,58.6569762 51.5779853,58.6490531" id="Path" stroke="#979797" stroke-linecap="round"></path>
        </g>
    </g>
</svg>