<?xml version="1.0" encoding="UTF-8"?>
<svg width="255px" height="79px" viewBox="0 0 255 79" version="1.1" xmlns="http://www.w3.org/2000/svg" xmlns:xlink="http://www.w3.org/1999/xlink">
    <title>Group 5</title>
    <g id="Page-1" stroke="none" stroke-width="1" fill="none" fill-rule="evenodd">
        <g id="Group-5" transform="translate(1.500000, 0.499503)">
            <path id="Line-3" d="M-0.204777187,5.32369078 L0.236014385,5.55970517 C42.4991101,28.1887643 84.5854088,39.5004967 126.5,39.5004967 C165.890795,39.5004967 205.13835,29.5100205 244.247631,9.52464053 L242.38231,5.99408552 L252.44205,5.7668475 L246.587996,13.9509821 L244.715,10.408 L244.002965,10.7716003 C204.987948,30.5894149 165.818668,40.5004967 126.5,40.5004967 C84.4145912,40.5004967 42.1675566,29.1455625 -0.236014385,6.44128831 L-0.676805957,6.20527393 L-0.204777187,5.32369078 Z" fill="#979797" fill-rule="nonzero" opacity="0.5"></path>
            <path d="M0,6.00049674 C0,6.00049674 4.37789393,6.78068576 6.94750397,8.716439 C9.517114,10.6521922 10.6532593,13.4718025 10.6005181,15.0966119 C10.5477769,16.7214213 9.26648996,16.2897632 10.5961158,14.1215502 C11.9257417,11.9533371 15.7065518,8.98706348 21.9526914,9.1705455 C28.1988311,9.35402752 34.5765959,13.1251363 37.4013034,19.2744754 C40.2260108,25.4238146 38.093536,31.7888361 33.8228602,33.3252206 C29.5521845,34.8616052 24.8069469,30.8066577 26.2548056,24.0327423 C27.7026642,17.2588268 35.2031565,10.5035422 46.1016493,10.4982238 C57.000142,10.4929054 67.2225045,17.7801604 70.2024014,28.2934521 C73.1822983,38.8067438 67.4962983,48.7619041 58.7726538,50.1237945 C50.0490093,51.4856848 41.665715,43.578786 43.2219146,31.991248 C44.7781141,20.40371 56.113362,9.72690232 71.7423181,9.50688146 C87.3712743,9.2868606 101.448666,20.1493064 104.515203,35.0496786 C107.58174,49.9500507 98.2358085,63.4485646 85.0098912,64.5505813 C71.783974,65.652598 59.7903157,53.8142001 61.464482,37.4173629 C63.1386482,21.0205257 78.2766372,6.48765546 98.5129726,6.03912727 C118.749308,5.59059908 136.534495,19.9288205 139.633225,39.0440242 C142.731954,58.1592279 129.790775,75.0186013 112.204751,75.8050582 C94.6187284,76.5915152 79.1708251,60.9170308 80.9573557,39.883767 C82.7438864,18.8505032 101.51411,0.031302949 126.038568,0 C150.563025,-0.0312214205 171.179641,17.9228315 172.958647,39.9111255 C174.737652,61.8994196 158.51974,78.6237616 139.86034,77.7760175 C121.200941,76.9282735 107.399436,59.3821531 110.486495,39.1230701 C113.573555,18.8639871 132.228908,3.76149926 153.547234,4.15053917 C174.865559,4.53957907 190.966292,20.0901409 192.619389,37.5439012 C194.272486,54.9976615 181.42395,67.89723 167.053541,66.7369725 C152.683132,65.576715 142.451491,51.3045507 145.498603,35.2099038 C148.545716,19.1152569 163.585766,7.43940991 180.33371,7.60429033 C197.081655,7.76917076 209.417928,19.4834959 210.956643,32.1675342 C212.495358,44.8515726 203.240882,53.8167595 193.327019,52.4019775 C183.413156,50.9871955 176.849039,40.1929556 179.792071,28.4729793 C182.735103,16.753003 193.957793,8.64057494 205.972935,8.59578871 C217.988076,8.55100247 226.484939,16.3305977 227.898575,24.1972841 C229.312211,32.0639705 223.700611,37.1082797 218.256979,35.5269135 C212.813346,33.9455472 209.845222,26.7284351 212.622481,19.4168107 C215.39974,12.1051864 222.791877,7.50464596 230.103575,7.27991157 C237.415273,7.05517718 242.153162,10.9862007 243.422744,14.2156093 C244.692325,17.445018 242.62797,18.7489492 241.43735,17.0983354 C240.246731,15.4477216 240.709843,11.7332183 243.186263,8.74828028 C245.662683,5.76334224 249.208617,4.57379894 252,4.23014013" id="Path" stroke="#979797" stroke-linecap="round"></path>
        </g>
    </g>
</svg>