<?xml version="1.0" encoding="UTF-8"?>
<svg width="150px" height="151px" viewBox="0 0 150 151" version="1.1" xmlns="http://www.w3.org/2000/svg" xmlns:xlink="http://www.w3.org/1999/xlink">
    <title>Group</title>
    <g id="Page-1" stroke="none" stroke-width="1" fill="none" fill-rule="evenodd">
        <g id="Group" transform="translate(0.000000, 1.000000)">
            <rect id="Rectangle" fill="#D8D8D8" x="0" y="0" width="150" height="150"></rect>
            <path d="M75,5.68434189e-14 C116.421356,1.31848272 147.568483,35.6497116 146.25,75 C144.931517,114.350288 112.279221,143.818483 75,142.5 C37.7207794,141.181517 9.93151728,110.208153 11.25,75 C12.5684827,39.7918472 41.862915,13.6815173 75,15 C108.137085,16.3184827 132.568483,43.9339828 131.25,75 C129.931517,106.066017 103.994949,128.818483 75,127.5 C46.0050506,126.181517 24.9315173,101.923882 26.25,75 C27.5684827,48.0761184 50.1471863,28.6815173 75,30 C99.8528137,31.3184827 117.568483,52.2182541 116.25,75 C114.931517,97.7817459 95.7106781,113.818483 75,112.5 C54.2893219,111.181517 39.9315173,93.6396103 41.25,75 C42.5684827,56.3603897 58.4314575,43.6815173 75,45 C91.5685425,46.3184827 102.568483,60.5025253 101.25,75 C99.9315173,89.4974747 87.4264069,98.8184827 75,97.5 C62.5735931,96.1815173 54.9315173,85.3553391 56.25,75 C57.5684827,64.6446609 66.7157288,58.6815173 75,60 C83.2842712,61.3184827 87.5684827,68.7867966 86.25,75 C84.9315173,81.2132034 79.1421356,83.8184827 75,82.5 C70.8578644,81.1815173 69.9315173,77.0710678 71.25,75 C72.5684827,72.9289322 75,75 75,75" id="Path" stroke="#979797" stroke-linecap="round"></path>
        </g>
    </g>
</svg>