<?xml version="1.0" encoding="UTF-8"?>
<svg width="383px" height="151px" viewBox="0 0 383 151" version="1.1" xmlns="http://www.w3.org/2000/svg" xmlns:xlink="http://www.w3.org/1999/xlink">
    <title>Group 3</title>
    <g id="Page-1" stroke="none" stroke-width="1" fill="none" fill-rule="evenodd">
        <g id="Group-3" transform="translate(0.000000, 1.000000)">
            <rect id="Rectangle" fill="#D8D8D8" x="0" y="0" width="150" height="150"></rect>
            <rect id="Rectangle-Copy" fill="#D8D8D8" transform="translate(326.500000, 71.000000) rotate(34.000000) translate(-326.500000, -71.000000) " x="300" y="10" width="53" height="122"></rect>
            <path d="M75,0 C121.417878,0.164007791 157.992325,35.1633673 160.118057,76.9530277 C162.243789,118.742688 131.235042,150.704194 95.7850509,148.070451 C60.3350603,145.436709 36.5174664,109.320469 45.2681188,68.3796337 C54.0187713,27.438798 93.3950873,-2.00626634 133.848767,2.50789031 C174.302446,7.02204697 202.470261,43.6117185 200.059372,83.2935167 C197.648483,122.975315 167.630859,149.785728 137.9124,143.481049 C108.193942,137.17637 92.7424419,100.207942 106.247016,61.6350021 C119.75159,23.0620625 157.834327,-1.56631588 191.918863,5.94590656 C226.003398,13.458129 245.917963,50.1733838 239.465341,87.2314494 C233.012718,124.289515 204.672391,146.638384 180.868724,138.028723 C157.065057,129.419063 149.742723,93.0349139 167.551063,57.3063772 C185.359404,21.5778405 221.582121,1.03374892 249.114898,10.1770195 C276.647676,19.3202901 288.69707,54.7602256 278.755832,88.7563498 C268.814594,122.752474 242.701548,141.407104 224.738847,131.85537 C206.776146,122.303636 207.140472,87.85947 228.762643,55.3715089 C250.384815,22.8835478 284.351064,5.62581069 305.362848,15.0552354 C326.374631,24.4846601 331.17461,57.3446224 318.343814,87.9228625 C305.513019,118.501103 282.041856,134.280718 269.585816,125.110302 C257.129776,115.939887 264.560479,84.6793348 289.475801,55.7438583 C314.391124,26.8083818 345.892764,11.9996676 360.610767,20.4287081" id="Path" stroke="#979797" stroke-linecap="round"></path>
        </g>
    </g>
</svg>