<?xml version="1.0" encoding="UTF-8"?>
<svg width="729px" height="202px" viewBox="0 0 729 202" version="1.1" xmlns="http://www.w3.org/2000/svg" xmlns:xlink="http://www.w3.org/1999/xlink">
    <title>Group 4</title>
    <g id="Page-1" stroke="none" stroke-width="1" fill="none" fill-rule="evenodd">
        <g id="Group-4" transform="translate(0.000000, 1.432811)">
            <g id="Group-2" transform="translate(207.000000, 62.430657)"></g>
            <path d="M207,115.567189 C269.833333,75.5671886 324.083333,58.150522 369.75,63.3171886 C438.25,71.0671886 438.25,144.817189 507,151.817189 C552.833333,156.483855 601.583333,140.567189 653.25,104.067189" id="Line-3" stroke="#979797" stroke-linecap="square"></path>
            <rect id="Rectangle" fill="#D8D8D8" x="0" y="24.5671886" width="150" height="150"></rect>
            <rect id="Rectangle-Copy" fill="#D8D8D8" transform="translate(697.952162, 107.660872) rotate(34.000000) translate(-697.952162, -107.660872) " x="686.952162" y="68.660872" width="22" height="78"></rect>
            <path d="M207,40.5671886 C253.289347,38.2654588 290.262627,69.9585841 293.27201,108.723929 C296.281392,147.489274 266.372043,176.467344 231.119189,172.277394 C195.866335,168.087445 171.164235,130.641556 178.714427,88.4144242 C186.264618,46.1872919 224.973577,13.9828469 266.887924,15.1613706 C308.80227,16.3398944 340.090588,48.5534672 340.745751,85.3195066 C341.400913,122.085546 313.419258,147.391294 283.085415,141.703 C252.751572,136.014705 234.379525,99.7811638 245.097571,61.4165008 C255.815617,23.0518379 293.197894,-4.00917865 330.53832,0.488302204 C367.878747,4.98578306 393.755527,37.5275337 392.434119,72.8750274 C391.112711,108.222521 365.53602,130.917862 340.047969,125.100081 C314.559919,119.2823 302.310122,85.5638879 315.500018,52.3356795 C328.689914,19.1074711 364.264727,-2.47434978 396.322846,5.7704391 C428.380964,14.015228 448.960107,47.3736237 444.930406,82.9669028 C440.900704,118.560182 417.318824,140.882319 395.341023,136.790066 C373.363223,132.697813 365.492282,104.386872 378.975903,77.5208573 C392.459524,50.6548429 423.71123,36.2313175 449.4482,46.8793624 C475.185171,57.5274073 488.37031,92.1962206 481.885397,125.998045 C475.400483,159.79987 452.859325,181.194934 435.466372,176.560386 C418.073418,171.925838 414.205371,147.186386 430.300882,122.479902 C446.396392,97.7734188 475.3109,85.8646648 497.208649,94.6747267 C519.106398,103.484789 528.879188,134.362072 523.258149,161.726661 C517.637109,189.091249 500.150888,205.017709 488.154997,198.050258 C476.159106,191.082807 478.896565,165.646189 497.274463,140.610373 C515.652361,115.574557 542.848056,102.221079 559.922416,108.429128 C576.996776,114.637177 583.233968,139.043868 577.065243,160.62943 C570.896518,182.214992 556.826731,193.555576 548.681198,186.360904 C540.535665,179.166232 547.372618,154.942057 566.318116,130.951179 C585.263614,106.960301 608.99772,93.257877 620.807072,97.4377717 C632.616424,101.617666 634.746037,120.606271 627.920083,137.184789 C621.094129,153.763306 610.075912,161.938496 605.233498,156.00667 C600.391085,150.074844 610.455968,128.122663 629.402446,105.74742 C648.348924,83.3721776 670.039253,68.1692563 675.058523,71.7347233" id="Path" stroke="#979797" stroke-linecap="round"></path>
        </g>
    </g>
</svg>