<?xml version="1.0" encoding="UTF-8"?>
<svg width="44px" height="44px" viewBox="0 0 44 44" version="1.1" xmlns="http://www.w3.org/2000/svg" xmlns:xlink="http://www.w3.org/1999/xlink">
    <title>Group 10</title>
    <defs>
        <linearGradient x1="27.0443252%" y1="9.06330587%" x2="93.4501452%" y2="54.5571887%" id="linearGradient-1">
            <stop stop-color="#999999" offset="0%"></stop>
            <stop stop-color="#000000" offset="30.8840452%"></stop>
            <stop stop-color="#000000" offset="69.7791466%"></stop>
            <stop stop-color="#999999" offset="100%"></stop>
        </linearGradient>
        <linearGradient x1="96.0704244%" y1="51.3131797%" x2="10.3176263%" y2="47.538878%" id="linearGradient-2">
            <stop stop-color="#A6A6A6" offset="0%"></stop>
            <stop stop-color="#000000" offset="33.0019958%"></stop>
            <stop stop-color="#000000" offset="77.3478717%"></stop>
            <stop stop-color="#979797" offset="100%"></stop>
        </linearGradient>
        <linearGradient x1="10.1813256%" y1="47.2520363%" x2="82.7466213%" y2="50%" id="linearGradient-3">
            <stop stop-color="#999999" offset="0%"></stop>
            <stop stop-color="#000000" offset="29.6004289%"></stop>
            <stop stop-color="#000000" offset="70.5511773%"></stop>
            <stop stop-color="#999999" offset="100%"></stop>
        </linearGradient>
        <linearGradient x1="93.854212%" y1="45.2113432%" x2="7.85093365%" y2="55.6707195%" id="linearGradient-4">
            <stop stop-color="#999999" offset="0%"></stop>
            <stop stop-color="#DDDDDD" offset="41.3857495%"></stop>
            <stop stop-color="#999999" offset="100%"></stop>
        </linearGradient>
        <linearGradient x1="93.0791508%" y1="48.3457184%" x2="9.21525529%" y2="50%" id="linearGradient-5">
            <stop stop-color="#999999" offset="0%"></stop>
            <stop stop-color="#979797" offset="65.7706307%"></stop>
            <stop stop-color="#999999" offset="100%"></stop>
        </linearGradient>
    </defs>
    <g id="Page-1" stroke="none" stroke-width="1" fill="none" fill-rule="evenodd">
        <g id="Group-10">
            <g id="Group">
                <rect id="Rectangle" x="0" y="0" width="44" height="44"></rect>
                <path d="M13.4665466,27.3900941 C15.9350199,26.8899658 18.2911301,26.8910803 19.5516345,27.6146169 C22.5432478,29.3318199 26.2414796,34.2051491 26.7393977,37.3022882 C27.2904737,40.7300795 25.1215426,44 22.0928015,44 C21.5671093,44 21.1409515,43.5717506 21.1409515,43.0434781 C21.1409515,42.5152056 21.5671093,42.0869562 22.0928015,42.0869562 C23.8309817,42.0869562 25.2389696,39.9642478 24.8600654,37.6073962 C24.4594424,35.1154496 21.1241538,30.7203872 18.6074171,29.2757662 C17.8694202,28.8521518 15.8870953,28.8512141 13.8427934,29.2654026 C12.9209116,29.4521817 12.1028941,29.7022032 11.5929745,29.9475099 C11.5604751,29.9631444 11.530083,29.9783891 11.5019224,29.9930289 L11.4450515,30.023302 L11.4391583,30.0823503 C11.4087502,30.2682196 11.3239257,30.4457127 11.1874195,30.5885627 L11.0993358,30.6699054 C10.6909551,31.002555 10.0915484,30.9395379 9.76052348,30.5291527 C8.97041444,29.5496219 9.64173981,28.7652348 10.7709715,28.221996 C11.4414501,27.8994492 12.402831,27.6056096 13.4665466,27.3900941 Z" id="Path" fill="url(#linearGradient-1)" fill-rule="nonzero"></path>
                <path d="M2.79916875,14.0379497 C8.20284153,11.6776723 25.3474562,11.8807705 32.6914618,15.0902463 C37.7799529,17.3140176 40.1544861,19.6634745 39.3745904,22.3964745 C39.2296817,22.9042802 38.7025628,23.1978898 38.1972374,23.0522699 C37.6919119,22.9066499 37.3997364,22.3769438 37.5446451,21.8691381 C37.9540569,20.4344302 36.2194909,18.7181821 31.9322562,16.8445757 C25.0651802,13.8435275 8.46996789,13.6469376 3.55804055,15.7924249 C3.28819265,15.9102921 3.09660347,16.0225905 2.98368601,16.1132245 L2.95740516,16.1355605 L2.96307511,16.158976 C3.01939148,16.5528015 2.82464701,16.9480013 2.46861226,17.1382821 L2.36758039,17.1849413 C1.87806613,17.3775277 1.3258768,17.1348724 1.13423099,16.6429555 C0.701521497,15.5322758 1.42908539,14.6363902 2.79916875,14.0379497 Z" id="Path" fill="url(#linearGradient-2)" fill-rule="nonzero"></path>
                <path d="M22.0965643,0 C32.6808055,0.0420469692 37.6497299,1.93311802 37.1531397,5.37913035 L37.2110483,5.46339365 C37.8230178,6.28226973 37.9967369,7.16216853 37.6711626,8.06749165 L37.6333001,8.16390696 L37.7254502,8.21062244 C39.6625296,9.21274903 40.8350369,10.3819849 40.9838978,11.6744308 L40.9959184,11.8133766 C41.0186766,12.2060518 40.9459573,12.5927221 40.785453,12.9625281 C40.5752903,13.4467479 40.0142994,13.6680789 39.5324447,13.4568847 C39.0505899,13.2456905 38.83034,12.6819461 39.0405026,12.1977263 C39.0839106,12.0977134 39.1003924,12.0100744 39.0954389,11.9246062 C38.9584348,9.56070448 29.789931,6.89975386 18.9251186,6.46590528 C14.9111826,6.30562268 11.6817519,6.61796166 9.539501,7.29576164 C7.88286835,7.81991386 7.2104868,8.43523644 7.27903649,8.81554029 C7.37273283,9.3353541 7.02935457,9.83307515 6.51207968,9.92723138 C5.99480478,10.0213876 5.49951473,9.67632395 5.40581839,9.15651014 C5.14528808,7.71112546 6.1559209,6.55801122 8.14255328,5.76230942 L8.17925417,5.74773263 L8.07626708,5.73393108 C7.92862413,5.70538861 7.78650484,5.64155308 7.66336385,5.54260824 L7.57477677,5.46181948 C7.20814126,5.08323342 7.21633009,4.47765316 7.59306703,4.10921811 C8.08539878,3.62773554 8.76905215,3.19769546 9.63761594,2.81517088 C12.4156467,1.59169708 16.4889604,0.940500771 20.7086834,0.897503274 L21.1444028,0.895297026 L21.1478015,0.841208787 C21.2002828,0.402291987 21.5483598,0.0552611878 21.9855341,0.00599419368 L22.0965643,0 Z M10.4017659,4.56733105 C9.7270759,4.86447158 9.23182566,5.176 8.92077166,5.48019952 L8.91217866,5.48660215 L8.9885599,5.46324511 C11.3049332,4.74070358 14.6214346,4.40907339 18.6123894,4.54023031 L19.0007053,4.55437003 C25.0807052,4.79715372 30.5795362,5.64111737 34.5588678,6.92726369 L34.7958353,7.00460241 L34.7643091,6.90904414 C34.7087569,6.70678215 34.719019,6.48626601 34.8047695,6.28271791 L34.8539802,6.18252093 C34.9074163,6.08788077 34.9543726,5.99439614 34.9946796,5.90211116 L34.9765136,5.88175023 C34.3920291,5.43998204 33.5074324,4.98519045 32.284238,4.52821709 L32.0169282,4.43026478 C25.734926,2.17173024 15.4996029,2.32219035 10.4017659,4.56733105 Z" id="Combined-Shape" fill="url(#linearGradient-3)" fill-rule="nonzero"></path>
                <path d="M25.6479227,36.510564 C26.166886,36.4263107 26.655556,36.7807777 26.7393977,37.3022882 C27.2904737,40.7300795 25.1215426,44 22.0928015,44 C21.5671093,44 21.1409515,43.5717506 21.1409515,43.0434781 C21.1409515,42.5152056 21.5671093,42.0869562 22.0928015,42.0869562 C23.8309817,42.0869562 25.2389696,39.9642478 24.8600654,37.6073962 C24.7762237,37.0858857 25.1289594,36.5948172 25.6479227,36.510564 Z" id="Path" fill="#979797" fill-rule="nonzero"></path>
                <path d="M38.2512388,19.8983413 C38.761008,19.769307 39.2783497,20.079982 39.4067538,20.5922533 C40.0476722,23.1492136 37.8842972,25.4558578 33.1955868,27.7222157 C25.8469543,31.2742865 18.9758893,32.2625906 12.0232518,31.3894503 C10.9504403,31.2547223 10.2644268,31.0445757 9.85896766,30.6386316 C9.12543347,29.90422 9.47388014,29.0518661 10.2348244,28.5272836 C10.6683169,28.228441 11.2608085,28.3393212 11.5581914,28.7749413 C11.6725695,28.9424875 11.7266337,29.1336697 11.7251956,29.3225244 L11.7191843,29.4064337 L11.8132404,29.4242844 C11.8998071,29.4395282 11.9949514,29.4548492 12.0982682,29.4695866 L12.2593222,29.4911724 C18.8609586,30.3202326 25.3640625,29.3848544 32.3703971,25.9982384 C36.3196544,24.0893061 37.8982578,22.40616 37.560716,21.0595279 C37.4323119,20.5472566 37.7414695,20.0273756 38.2512388,19.8983413 Z" id="Path" fill="url(#linearGradient-4)" fill-rule="nonzero"></path>
                <path d="M39.9903355,10.9140877 C40.5151384,10.8833725 40.9653532,11.2859978 40.9959184,11.8133766 C41.2223898,15.7209676 31.6182339,18.4534864 18.2370102,19.5966722 C12.9097796,20.0517887 7.84737876,19.7057233 4.55305322,18.7764645 C2.89493864,18.3087459 1.77110574,17.7228201 1.28679798,16.9459105 C0.554586347,15.7713221 1.28383892,14.6998326 2.79916875,14.0379497 C3.28128733,13.8273645 3.84200091,14.0494041 4.05155757,14.533889 C4.26111423,15.018374 4.04015914,15.5818396 3.55804055,15.7924249 C3.36474387,15.8768552 3.21291888,15.957816 3.10205708,16.0284848 L3.03545686,16.0725184 L3.05252013,16.0860481 C3.3406308,16.312 3.96201227,16.6035765 4.84215526,16.8688819 L5.06753875,16.9346077 C8.12371058,17.7966884 12.9616695,18.127411 18.0757492,17.6905045 C29.9399302,16.6769227 39.2178789,14.0372145 39.0954389,11.9246062 L39.0953777,11.8128701 C39.1227441,11.3347469 39.5030185,10.9426089 39.9903355,10.9140877 Z" id="Path" fill="#979797" fill-rule="nonzero"></path>
                <path d="M31.1875331,10.2996804 C27.2569262,11.4259755 21.8058536,11.8088974 16.5614207,11.2099496 C10.1549529,10.47829 5.9537645,8.27905442 6.76293912,5.43358313 C6.90738325,4.92564379 7.34530133,3.710224 8.59177155,3.96047106 C9.83824176,4.21071811 8.73781011,5.45128965 8.59336598,5.95922898 C8.2881203,7.03262874 11.4818282,8.70446901 16.7763897,9.30914184 C24.8025488,10.2257806 33.4806657,8.61478899 34.8539802,6.18252093 C35.1134049,5.72305565 35.6943611,5.56192293 36.1515823,5.82262093 C36.2822169,5.89710607 36.3886167,5.99796751 36.4679155,6.11476906 L36.485369,6.14382102 L36.5266384,6.12704642 C36.5606691,6.11526544 36.5956377,6.10534438 36.6314379,6.09741433 L36.7412266,6.07972835 C37.2642224,6.02629158 37.7313018,6.40902539 37.7844776,6.93458823 C38.0182293,9.24487387 35.4173308,11.1098373 30.7504664,12.4328514 C23.1888629,14.576498 10.9029976,13.9174674 7.01104913,11.2786914 C5.64586824,10.3530865 5.04023417,9.14563483 5.53717195,7.9173671 C5.73516421,7.42799495 6.29044549,7.19257268 6.77742741,7.39153674 C7.26440932,7.59050079 7.49868173,8.14850754 7.30068946,8.63787968 C7.20408061,8.87666518 7.37521027,9.2178461 8.0757895,9.69284511 C11.4306721,11.9674856 23.160911,12.5967116 30.2335942,10.5916695 C30.5626422,10.4983873 30.877586,10.4029906 31.1783622,10.3058978 L31.2911237,10.2683435 L31.1875331,10.2996804 Z" id="Path" fill="url(#linearGradient-5)" fill-rule="nonzero"></path>
            </g>
            <g id="Group-Copy-2">
                <rect id="Rectangle" x="0" y="0" width="44" height="44"></rect>
                <path d="M13.4665466,27.3900941 C15.9350199,26.8899658 18.2911301,26.8910803 19.5516345,27.6146169 C22.5432478,29.3318199 26.2414796,34.2051491 26.7393977,37.3022882 C27.2904737,40.7300795 25.1215426,44 22.0928015,44 C21.5671093,44 21.1409515,43.5717506 21.1409515,43.0434781 C21.1409515,42.5152056 21.5671093,42.0869562 22.0928015,42.0869562 C23.8309817,42.0869562 25.2389696,39.9642478 24.8600654,37.6073962 C24.4594424,35.1154496 21.1241538,30.7203872 18.6074171,29.2757662 C17.8694202,28.8521518 15.8870953,28.8512141 13.8427934,29.2654026 C12.9209116,29.4521817 12.1028941,29.7022032 11.5929745,29.9475099 C11.5604751,29.9631444 11.530083,29.9783891 11.5019224,29.9930289 L11.4450515,30.023302 L11.4391583,30.0823503 C11.4087502,30.2682196 11.3239257,30.4457127 11.1874195,30.5885627 L11.0993358,30.6699054 C10.6909551,31.002555 10.0915484,30.9395379 9.76052348,30.5291527 C8.97041444,29.5496219 9.64173981,28.7652348 10.7709715,28.221996 C11.4414501,27.8994492 12.402831,27.6056096 13.4665466,27.3900941 Z" id="Path" fill-opacity="0.5" fill="#FFFFFF" fill-rule="nonzero"></path>
                <path d="M2.79916875,14.0379497 C8.20284153,11.6776723 25.3474562,11.8807705 32.6914618,15.0902463 C37.7799529,17.3140176 40.1544861,19.6634745 39.3745904,22.3964745 C39.2296817,22.9042802 38.7025628,23.1978898 38.1972374,23.0522699 C37.6919119,22.9066499 37.3997364,22.3769438 37.5446451,21.8691381 C37.9540569,20.4344302 36.2194909,18.7181821 31.9322562,16.8445757 C25.0651802,13.8435275 8.46996789,13.6469376 3.55804055,15.7924249 C3.28819265,15.9102921 3.09660347,16.0225905 2.98368601,16.1132245 L2.95740516,16.1355605 L2.96307511,16.158976 C3.01939148,16.5528015 2.82464701,16.9480013 2.46861226,17.1382821 L2.36758039,17.1849413 C1.87806613,17.3775277 1.3258768,17.1348724 1.13423099,16.6429555 C0.701521497,15.5322758 1.42908539,14.6363902 2.79916875,14.0379497 Z" id="Path" fill-opacity="0.32" fill="#FFFFFF" fill-rule="nonzero"></path>
                <path d="M22.0965643,0 C32.6808055,0.0420469692 37.6497299,1.93311802 37.1531397,5.37913035 L37.2110483,5.46339365 C37.8230178,6.28226973 37.9967369,7.16216853 37.6711626,8.06749165 L37.6333001,8.16390696 L37.7254502,8.21062244 C39.6625296,9.21274903 40.8350369,10.3819849 40.9838978,11.6744308 L40.9959184,11.8133766 C41.0186766,12.2060518 40.9459573,12.5927221 40.785453,12.9625281 C40.5752903,13.4467479 40.0142994,13.6680789 39.5324447,13.4568847 C39.0505899,13.2456905 38.83034,12.6819461 39.0405026,12.1977263 C39.0839106,12.0977134 39.1003924,12.0100744 39.0954389,11.9246062 C38.9584348,9.56070448 29.789931,6.89975386 18.9251186,6.46590528 C14.9111826,6.30562268 11.6817519,6.61796166 9.539501,7.29576164 C7.88286835,7.81991386 7.2104868,8.43523644 7.27903649,8.81554029 C7.37273283,9.3353541 7.02935457,9.83307515 6.51207968,9.92723138 C5.99480478,10.0213876 5.49951473,9.67632395 5.40581839,9.15651014 C5.14528808,7.71112546 6.1559209,6.55801122 8.14255328,5.76230942 L8.17925417,5.74773263 L8.07626708,5.73393108 C7.92862413,5.70538861 7.78650484,5.64155308 7.66336385,5.54260824 L7.57477677,5.46181948 C7.20814126,5.08323342 7.21633009,4.47765316 7.59306703,4.10921811 C8.08539878,3.62773554 8.76905215,3.19769546 9.63761594,2.81517088 C12.4156467,1.59169708 16.4889604,0.940500771 20.7086834,0.897503274 L21.1444028,0.895297026 L21.1478015,0.841208787 C21.2002828,0.402291987 21.5483598,0.0552611878 21.9855341,0.00599419368 L22.0965643,0 Z M10.4017659,4.56733105 C9.7270759,4.86447158 9.23182566,5.176 8.92077166,5.48019952 L8.91217866,5.48660215 L8.9885599,5.46324511 C11.3049332,4.74070358 14.6214346,4.40907339 18.6123894,4.54023031 L19.0007053,4.55437003 C25.0807052,4.79715372 30.5795362,5.64111737 34.5588678,6.92726369 L34.7958353,7.00460241 L34.7643091,6.90904414 C34.7087569,6.70678215 34.719019,6.48626601 34.8047695,6.28271791 L34.8539802,6.18252093 C34.9074163,6.08788077 34.9543726,5.99439614 34.9946796,5.90211116 L34.9765136,5.88175023 C34.3920291,5.43998204 33.5074324,4.98519045 32.284238,4.52821709 L32.0169282,4.43026478 C25.734926,2.17173024 15.4996029,2.32219035 10.4017659,4.56733105 Z" id="Combined-Shape" fill-opacity="0.71" fill="#FFFFFF" fill-rule="nonzero" style="mix-blend-mode: lighten;"></path>
                <path d="M25.6479227,36.510564 C26.166886,36.4263107 26.655556,36.7807777 26.7393977,37.3022882 C27.2904737,40.7300795 25.1215426,44 22.0928015,44 C21.5671093,44 21.1409515,43.5717506 21.1409515,43.0434781 C21.1409515,42.5152056 21.5671093,42.0869562 22.0928015,42.0869562 C23.8309817,42.0869562 25.2389696,39.9642478 24.8600654,37.6073962 C24.7762237,37.0858857 25.1289594,36.5948172 25.6479227,36.510564 Z" id="Path" fill="#FFFFFF" fill-rule="nonzero" style="mix-blend-mode: lighten;"></path>
                <path d="M38.2512388,19.8983413 C38.761008,19.769307 39.2783497,20.079982 39.4067538,20.5922533 C40.0476722,23.1492136 37.8842972,25.4558578 33.1955868,27.7222157 C25.8469543,31.2742865 18.9758893,32.2625906 12.0232518,31.3894503 C10.9504403,31.2547223 10.2644268,31.0445757 9.85896766,30.6386316 C9.12543347,29.90422 9.47388014,29.0518661 10.2348244,28.5272836 C10.6683169,28.228441 11.2608085,28.3393212 11.5581914,28.7749413 C11.6725695,28.9424875 11.7266337,29.1336697 11.7251956,29.3225244 L11.7191843,29.4064337 L11.8132404,29.4242844 C11.8998071,29.4395282 11.9949514,29.4548492 12.0982682,29.4695866 L12.2593222,29.4911724 C18.8609586,30.3202326 25.3640625,29.3848544 32.3703971,25.9982384 C36.3196544,24.0893061 37.8982578,22.40616 37.560716,21.0595279 C37.4323119,20.5472566 37.7414695,20.0273756 38.2512388,19.8983413 Z" id="Path" fill="#FFFFFF" fill-rule="nonzero" style="mix-blend-mode: lighten;"></path>
                <path d="M39.9903355,10.9140877 C40.5151384,10.8833725 40.9653532,11.2859978 40.9959184,11.8133766 C41.2223898,15.7209676 31.6182339,18.4534864 18.2370102,19.5966722 C12.9097796,20.0517887 7.84737876,19.7057233 4.55305322,18.7764645 C2.89493864,18.3087459 1.77110574,17.7228201 1.28679798,16.9459105 C0.554586347,15.7713221 1.28383892,14.6998326 2.79916875,14.0379497 C3.28128733,13.8273645 3.84200091,14.0494041 4.05155757,14.533889 C4.26111423,15.018374 4.04015914,15.5818396 3.55804055,15.7924249 C3.36474387,15.8768552 3.21291888,15.957816 3.10205708,16.0284848 L3.03545686,16.0725184 L3.05252013,16.0860481 C3.3406308,16.312 3.96201227,16.6035765 4.84215526,16.8688819 L5.06753875,16.9346077 C8.12371058,17.7966884 12.9616695,18.127411 18.0757492,17.6905045 C29.9399302,16.6769227 39.2178789,14.0372145 39.0954389,11.9246062 L39.0953777,11.8128701 C39.1227441,11.3347469 39.5030185,10.9426089 39.9903355,10.9140877 Z" id="Path" fill="#FFFFFF" fill-rule="nonzero" style="mix-blend-mode: lighten;"></path>
                <path d="M31.1875331,10.2996804 C27.2569262,11.4259755 21.8058536,11.8088974 16.5614207,11.2099496 C10.1549529,10.47829 5.9537645,8.27905442 6.76293912,5.43358313 C6.90738325,4.92564379 7.34530133,3.710224 8.59177155,3.96047106 C9.83824176,4.21071811 8.73781011,5.45128965 8.59336598,5.95922898 C8.2881203,7.03262874 11.4818282,8.70446901 16.7763897,9.30914184 C24.8025488,10.2257806 33.4806657,8.61478899 34.8539802,6.18252093 C35.1134049,5.72305565 35.6943611,5.56192293 36.1515823,5.82262093 C36.2822169,5.89710607 36.3886167,5.99796751 36.4679155,6.11476906 L36.485369,6.14382102 L36.5266384,6.12704642 C36.5606691,6.11526544 36.5956377,6.10534438 36.6314379,6.09741433 L36.7412266,6.07972835 C37.2642224,6.02629158 37.7313018,6.40902539 37.7844776,6.93458823 C38.0182293,9.24487387 35.4173308,11.1098373 30.7504664,12.4328514 C23.1888629,14.576498 10.9029976,13.9174674 7.01104913,11.2786914 C5.64586824,10.3530865 5.04023417,9.14563483 5.53717195,7.9173671 C5.73516421,7.42799495 6.29044549,7.19257268 6.77742741,7.39153674 C7.26440932,7.59050079 7.49868173,8.14850754 7.30068946,8.63787968 C7.20408061,8.87666518 7.37521027,9.2178461 8.0757895,9.69284511 C11.4306721,11.9674856 23.160911,12.5967116 30.2335942,10.5916695 C30.5626422,10.4983873 30.877586,10.4029906 31.1783622,10.3058978 L31.2911237,10.2683435 L31.1875331,10.2996804 Z" id="Path" fill="#FFFFFF" fill-rule="nonzero" style="mix-blend-mode: lighten;"></path>
            </g>
        </g>
    </g>
</svg>