<?xml version="1.0" encoding="UTF-8"?>
<svg width="44px" height="44px" viewBox="0 0 44 44" version="1.1" xmlns="http://www.w3.org/2000/svg" xmlns:xlink="http://www.w3.org/1999/xlink">
    <title>Group 3</title>
    <g id="Page-1" stroke="none" stroke-width="1" fill="none" fill-rule="evenodd">
        <g id="Group-3">
            <rect id="Rectangle" fill="#F6F8FA" x="0" y="0" width="44" height="44" rx="6"></rect>
            <path d="M13.5,6.25 C17.750557,5.10602399 21.0838903,4.68935733 23.5,5 C25.9161097,5.31064267 28.249443,5.72730934 30.5,6.25 C31.1270034,8.71083847 31.54367,10.3775051 31.75,11.25 C32.0614344,12.5669436 33.7652454,11.1656942 33.858729,11.865565 C34.0225332,13.091895 34.0696235,14.1367067 34,15 C33.9440202,15.6941189 33.0273535,16.1941189 31.25,16.5 C30.7847595,21.3671317 29.9514261,28.5337984 28.75,38 C26.4776086,38.8037503 24.2276086,39.1370836 22,39 C19.7723914,38.8629164 17.6890581,38.5295831 15.75,38 C14.9166667,23.6666667 14.1666667,16.5 13.5,16.5 C12.8333333,16.5 11.9166667,16 10.75,15 L13.5,9.25 L13.5,6.25 Z" id="Rectangle" fill="#FFFFFF"></path>
            <g id="buymeacoffee" transform="translate(10.000000, 4.000000)" fill-rule="nonzero">
                <path d="M22.3863425,8.37864749 L22.3615366,8.36411549 L22.3041136,8.34668548 C22.3272306,8.36608949 22.3561532,8.37733499 22.3863425,8.37864749 Z" id="Path" fill="#000000"></path>
                <path d="M22.749353,10.9511481 L22.7215915,10.9589181 L22.749353,10.9511481 Z" id="Path" fill="#000000"></path>
                <path d="M22.3929926,8.36098649 C22.3901426,8.36061898 22.3872925,8.35994698 22.384548,8.35899148 C22.3844425,8.36084999 22.3844425,8.36271899 22.384548,8.36457749 C22.3877148,8.36417849 22.3905648,8.36292899 22.3929926,8.36098649 Z" id="Path" fill="#000000"></path>
                <path d="M22.7246527,10.9370781 L22.7665588,10.9133481 L22.7820757,10.9046331 L22.7962203,10.8896181 C22.76962,10.9010631 22.7454474,10.9171281 22.7246527,10.9370781 Z" id="Path" fill="#000000"></path>
                <path d="M22.4562212,8.4291525 L22.4153707,8.39040749 L22.3876092,8.37539249 C22.4024927,8.401569 22.4270875,8.4208785 22.4562212,8.4291525 Z" id="Path" fill="#000000"></path>
                <path d="M12.1646254,33.3867137 C12.1319028,33.4007837 12.1032968,33.4227287 12.081341,33.4506587 L12.1070969,33.4341737 C12.1246193,33.4182137 12.1495308,33.3993137 12.1646254,33.3867137 Z" id="Path" fill="#000000"></path>
                <path d="M18.1455903,32.2165934 C18.1455903,32.1797384 18.12754,32.1865634 18.1319734,32.3172884 C18.1319734,32.3066834 18.1363013,32.2959734 18.1383068,32.2858934 C18.1407347,32.2625834 18.1426347,32.2397984 18.1455903,32.2165934 Z" id="Path" fill="#000000"></path>
                <path d="M17.5249152,33.3867137 C17.4921925,33.4007837 17.4635865,33.4227287 17.4416307,33.4506587 L17.4674921,33.4341737 C17.4850146,33.4182137 17.5098205,33.3993137 17.5249152,33.3867137 Z" id="Path" fill="#000000"></path>
                <path d="M7.95802088,33.6693737 C7.93322554,33.6479537 7.90285679,33.6338837 7.87038746,33.6287387 C7.89668171,33.6413387 7.9229654,33.6539387 7.94049841,33.6635987 L7.95802088,33.6693737 Z" id="Path" fill="#000000"></path>
                <path d="M7.01535469,32.7651135 C7.0114702,32.7269985 6.99970059,32.6900385 6.98078478,32.6566485 C6.99417996,32.6914035 7.00540067,32.7269985 7.01437301,32.7632235 L7.01535469,32.7651135 Z" id="Path" fill="#000000"></path>
                <path d="M13.3724086,16.6246145 C12.0724742,17.1781747 10.5972096,17.8058648 8.68521356,17.8058648 C7.88537655,17.8041848 7.08942404,17.6950898 6.31898465,17.4813097 L7.64134989,30.9863081 C7.68815386,31.5507882 7.94666294,32.0770484 8.36554476,32.4607184 C8.78441603,32.8443885 9.33301684,33.0573286 9.90243349,33.0572236 C9.90243349,33.0572236 11.7773368,33.1540336 12.4029731,33.1540336 C13.0764267,33.1540336 15.0954154,33.0572236 15.0954154,33.0572236 C15.6647898,33.0572236 16.2132639,32.8441785 16.6320085,32.4606134 C17.0507531,32.0769434 17.3092622,31.5506832 17.356024,30.9863081 L18.7723877,16.0627594 C18.139468,15.8477193 17.500637,15.7049188 16.7805272,15.7049188 C15.5351658,15.7043943 14.5316355,16.1311144 13.3724086,16.6246145 Z" id="Path" fill="#FFDD00"></path>
                <path d="M2.22349994,10.8732381 L2.24589914,10.8940281 L2.26050823,10.9027431 C2.24925585,10.8917181 2.2368529,10.8817431 2.22349994,10.8732381 Z" id="Path" fill="#000000"></path>
                <path d="M24.8884655,9.6220158 L24.689385,8.62288805 C24.510677,7.72642933 24.1051271,6.87937312 23.1800256,6.55536404 C22.883516,6.45172901 22.5471058,6.407167 22.3197361,6.19262045 C22.0923663,5.9780739 22.0251265,5.64486681 21.9725591,5.33588324 C21.8752356,4.7687466 21.7837176,4.20113746 21.6838607,3.63498782 C21.5977262,3.14824969 21.5295364,2.60146206 21.3050167,2.15492845 C21.0129405,1.5553573 20.4067266,1.20472021 19.8039962,0.972733156 C19.4951364,0.858043728 19.1799433,0.761023704 18.86,0.682146635 C17.3540184,0.286949637 15.770769,0.141656901 14.221509,0.0588402303 C12.3619115,-0.043227145 10.4974583,-0.0124757874 8.64232576,0.150859103 C7.26153472,0.275810184 5.80723379,0.426915721 4.49509701,0.902026139 C4.01551992,1.07589568 3.52133374,1.28462523 3.15666599,1.65318582 C2.70922045,2.10601944 2.56316124,2.80632761 2.88986014,3.37102825 C3.12209608,3.77204435 3.51549644,4.05536592 3.93275268,4.24279097 C4.47624453,4.48429103 5.0438456,4.66805157 5.62611909,4.7910276 C7.24742175,5.14748169 8.92666463,5.28744672 10.583065,5.34701324 C12.4189122,5.42072326 14.2577151,5.36098874 16.0848011,5.16830319 C16.536585,5.11891118 16.9876301,5.05965967 17.4378306,4.99056965 C17.9680434,4.90968813 18.3083592,4.22002696 18.1520293,3.73958884 C17.9650878,3.1652072 17.4626365,2.94241814 16.8944232,3.02910617 C16.8107165,3.04218917 16.7274321,3.05429567 16.6437254,3.06640217 L16.5833468,3.07511718 C16.3908108,3.09934068 16.1983804,3.12193669 16.0058444,3.14292619 C15.6083168,3.1855457 15.209628,3.22041621 14.8100948,3.24753772 C13.9151826,3.30952973 13.0179482,3.33810024 12.1210304,3.33954924 C11.2398406,3.33954924 10.358123,3.31485324 9.47879105,3.25721872 C9.07760058,3.23106322 8.67738124,3.19780971 8.27814357,3.1574477 C8.09653276,3.13856869 7.91541807,3.11871319 7.73430338,3.09643218 L7.56193937,3.07463418 L7.52445608,3.06931068 L7.3457692,3.04363817 C6.98061589,2.98891216 6.61545202,2.92595414 6.25418321,2.84991312 C6.21773438,2.84187012 6.18512782,2.82169961 6.16175751,2.79273011 C6.13838719,2.7637606 6.12564646,2.72772459 6.12564646,2.69057558 C6.12564646,2.65343707 6.13838719,2.61740106 6.16175751,2.58843156 C6.18512782,2.55946205 6.21773438,2.53928104 6.25418321,2.53123804 L6.26100219,2.53123804 C6.57406313,2.46488853 6.88956243,2.40823051 7.20603285,2.358828 C7.31152651,2.342364 7.41733684,2.32621499 7.52348495,2.31039149 L7.52639833,2.31039149 C7.72456047,2.29731898 7.92369374,2.26196548 8.12088476,2.23871847 C9.83646037,2.06120543 11.5623172,2.00069391 13.2861685,2.05758292 C14.1231299,2.08180643 14.9595635,2.13071544 15.7926193,2.21498846 C15.9717495,2.23339497 16.1500353,2.25276747 16.3282155,2.27455498 C16.3964053,2.28278698 16.4650174,2.29247848 16.5336294,2.30071049 L16.6719091,2.32056599 C17.0750312,2.3803005 17.4760423,2.45278202 17.8750477,2.53802104 C18.4660613,2.66587958 19.2251217,2.70753309 19.4880641,3.35166625 C19.5717708,3.5560383 19.6097713,3.78318485 19.6560053,3.99773141 L19.7149061,4.27136147 C19.7164895,4.27627547 19.717545,4.28129448 19.7182839,4.28637648 C19.8576192,4.93212664 19.9969544,5.5778663 20.1366063,6.22361646 C20.1467398,6.27131797 20.1470564,6.32060498 20.1372396,6.36841149 C20.1275284,6.4162075 20.1078948,6.46149401 20.0798166,6.50143602 C20.0516329,6.54137803 20.0155324,6.57512504 19.9737319,6.60057705 C19.9318257,6.62601856 19.8851695,6.64261906 19.8366133,6.64932856 L19.8327077,6.64932856 L19.7475232,6.66095206 L19.6632887,6.67209257 C19.3965462,6.70663758 19.1293815,6.73892508 18.8619,6.76895509 C18.3350651,6.82867911 17.8074912,6.88033912 17.2790729,6.92392463 C16.2289919,7.01078065 15.1769054,7.06777466 14.1226021,7.09489617 C13.5854226,7.10909218 13.0484541,7.11571768 12.5115913,7.11475168 C10.3745899,7.11307168 8.2395836,6.98952865 6.11688523,6.74473159 C5.8870771,6.71761008 5.65727952,6.68855657 5.42747139,6.65900956 C5.60566215,6.68177357 5.29796351,6.64157956 5.23564266,6.63286456 C5.08957289,6.61251555 4.94351368,6.59136855 4.79744391,6.56941304 C4.30716334,6.49628052 3.81979614,6.406201 3.3304867,6.32726198 C2.73892419,6.23039946 2.17317037,6.27882547 1.63809141,6.56941304 C1.19886876,6.8084981 0.843384467,7.17511619 0.619054743,7.6203688 C0.388275486,8.09498992 0.319621217,8.61174755 0.216407588,9.12173267 C0.113187626,9.6317073 -0.0474827858,10.1804269 0.0133771547,10.7039781 C0.144346995,11.8338833 0.938449096,12.7521086 2.08066022,12.9574886 C3.15520931,13.1512137 4.23558514,13.3080837 5.31889546,13.4417487 C9.57436235,13.9602389 13.8734876,14.0221889 18.142318,13.6267588 C18.4899172,13.5945238 18.8370941,13.5592438 19.1837433,13.5212338 C19.2920448,13.5093688 19.401613,13.5217588 19.5044255,13.5575638 C19.607238,13.5932638 19.7007615,13.6514338 19.7780292,13.7277688 C19.8552969,13.8041038 19.9145144,13.8967139 19.9511427,13.9986689 C19.9878765,14.1007289 20.0010711,14.2096139 19.9899876,14.317449 L19.8818973,15.3625142 C19.6641332,17.4744847 19.4463691,19.5862453 19.2284995,21.6977958 C19.0013408,23.9152913 18.7725988,26.1325769 18.5424846,28.3497574 C18.477567,28.9741926 18.4126495,29.5985227 18.3477319,30.2226429 C18.2854533,30.837208 18.2766921,31.4711982 18.1593127,32.0785184 C17.9743768,33.0335986 17.3243569,33.6200237 16.3759273,33.8346438 C15.5069821,34.0313088 14.6193533,34.1345239 13.7282412,34.1426089 C12.7403333,34.1479639 11.7529532,34.1043889 10.7651508,34.1096389 C9.71053087,34.1155189 8.41885105,34.0186038 7.60478495,33.2379286 C6.88956243,32.5521735 6.79072941,31.4784432 6.69335308,30.550033 C6.56351798,29.3207977 6.43482289,28.0917724 6.30725727,26.8629571 L5.59154918,20.0298704 L5.12852342,15.6085293 C5.12073332,15.5354493 5.11294321,15.4633142 5.10563867,15.3897092 C5.0501368,14.8622941 4.67475502,14.346009 4.08319251,14.372574 C3.57684617,14.394939 3.00134943,14.8230241 3.06075691,15.3897092 L3.40399659,18.667495 L4.11386737,25.4477667 C4.31608291,27.3737822 4.51781288,29.3000077 4.71905729,31.2265481 C4.75800782,31.5956232 4.79451998,31.9656433 4.83542332,32.3347184 C5.05792691,34.3513489 6.60619467,35.4380992 8.52353192,35.7442793 C9.6433544,35.9234093 10.7904845,35.9602643 11.9268055,35.9786393 C13.3835976,36.0018443 14.854851,36.0575993 16.2877872,35.7950993 C18.4110661,35.4076492 20.0041323,33.9972888 20.231502,31.8097183 C20.2964196,31.1781431 20.3613371,30.546463 20.4262547,29.9145728 C20.6421187,27.8249673 20.8576661,25.7351518 21.0727913,23.6452313 L21.7768564,16.8164496 L22.0996497,13.6868188 C22.1156944,13.5316288 22.1816675,13.3857837 22.2875412,13.2707037 C22.3934148,13.1556237 22.5338056,13.0776087 22.6878133,13.0479986 C23.2949771,12.9302936 23.8753295,12.7293236 24.3071631,12.2697385 C24.9946558,11.5379933 25.1314577,10.583858 24.8884655,9.6220158 Z M2.04949979,10.297145 C2.05875714,10.2927875 2.04170969,10.371758 2.0344157,10.408508 C2.03294846,10.352858 2.03587239,10.303445 2.04949979,10.297145 Z M22.659524,10.7799981 C22.4414433,10.9863231 22.1128443,11.0821882 21.7880455,11.1301732 C18.1462236,11.6677733 14.4513066,11.9399334 10.7694786,11.8198133 C8.13451217,11.7302483 5.52727553,11.4391882 2.91858219,11.0725282 C2.66296538,11.0367231 2.3859416,10.9902081 2.21017865,10.8027831 C1.87909914,10.449248 2.04170969,9.73728483 2.12788642,9.31012372 C2.20676916,8.91879912 2.35769455,8.39720099 2.82558648,8.34149848 C3.55590366,8.25626996 4.40405411,8.56283854 5.12658118,8.67180756 C5.99646581,8.80385559 6.8696016,8.90960112 7.74598854,8.98902314 C11.4862106,9.32804722 15.289218,9.27525321 19.0128465,8.77931709 C19.691578,8.68859707 20.3677761,8.58317704 21.041652,8.46306751 C21.6419546,8.35603048 22.307597,8.15504993 22.6702908,8.77351059 C22.9190887,9.19485469 22.9522336,9.75858933 22.9137053,10.2346699 C22.9018829,10.442108 22.8107872,10.637198 22.6591018,10.7799981 L22.659524,10.7799981 Z" id="Shape" fill="#000000"></path>
            </g>
        </g>
    </g>
</svg>