<?xml version="1.0" encoding="UTF-8"?>
<svg width="232px" height="118px" viewBox="0 0 232 118" version="1.1" xmlns="http://www.w3.org/2000/svg" xmlns:xlink="http://www.w3.org/1999/xlink">
    <title>objects</title>
    <g id="Page-1" stroke="none" stroke-width="1" fill="none" fill-rule="evenodd">
        <g id="objects" transform="translate(0.422015, 0.350947)" stroke="#979797">
            <rect id="Rectangle" fill="#D8D8D8" opacity="0.31" transform="translate(51.577985, 58.649053) rotate(-15.000000) translate(-51.577985, -58.649053) " x="12.0779853" y="9.14905312" width="79" height="99"></rect>
            <rect id="Rectangle" fill="#D8D8D8" opacity="0.31" transform="translate(211.456509, 66.391389) rotate(24.000000) translate(-211.456509, -66.391389) " x="202.456509" y="40.8913887" width="18" height="51"></rect>
            <path d="M38.6370331,10.3527618 C60.8118601,4.59585887 84.3928946,22.1471505 91.6056252,49.5225573 C98.8183559,76.8979641 86.1728291,102.816292 65.4834019,107.222853 C44.7939748,111.629413 23.847584,92.885752 20.9238618,65.7902513 C18.0001395,38.6947506 33.674648,14.3673676 56.2763717,11.5267867 C78.8780955,8.68620588 100.210378,28.4077841 105.276476,55.0904633 C110.342575,81.7731425 97.3505035,104.428661 79.4284688,106.054378 C61.5064342,107.680096 46.434417,87.7012599 48.3713623,62.2996357 C50.3083075,36.8980116 68.1948844,16.5647557 88.9987283,16.4113983 C109.802572,16.258041 127.244693,36.4720499 130.3753,60.768886 C133.505907,85.065722 121.941134,103.407355 108.452421,102.764117 C94.9637086,102.120879 86.7616011,82.7103777 93.1136287,60.6121984 C99.4656562,38.5140192 117.729966,22.9685279 134.498693,24.6373622 C151.267419,26.3061965 164.217423,45.0456194 165.440329,65.4836691 C166.663236,85.9217188 158.086533,99.7424046 149.004845,97.9497833 C139.923158,96.157162 137.730682,79.1952201 145.114933,61.0322182 C152.499184,42.8692164 167.47613,31.0718634 178.571922,33.2410892 C189.667714,35.410315 196.927494,51.400443 195.626691,68.2602319 C194.325887,85.1200207 186.904062,95.948201 180.584937,93.8821716 C174.265812,91.8161423 174.72245,77.3144664 181.898856,62.0568498 C189.075262,46.7992333 200.87445,37.178495 207.982259,39.3288879 C215.090068,41.4792808 218.147513,55.2024585 214.412029,69.6072435 C210.676546,84.0120285 203.144402,93.1395553 198.199938,91.0580619 C193.255473,88.9765685 194.724839,76.1878694 201.064645,62.6096908 C207.40445,49.0315123 217.142149,40.4622555 222.031662,42.6392068" id="Path" stroke-linecap="round"></path>
        </g>
    </g>
</svg>