<?xml version="1.0" encoding="UTF-8"?>
<svg width="104px" height="120px" viewBox="0 0 104 120" version="1.1" xmlns="http://www.w3.org/2000/svg" xmlns:xlink="http://www.w3.org/1999/xlink">
    <title>shape</title>
    <g id="Page-1" stroke="none" stroke-width="1" fill="none" fill-rule="evenodd">
        <g id="shape" transform="translate(0.422015, 1.000000)">
            <path d="M76.9205127,0.963319317 L102.543598,96.5899761 L26.2354579,117.036681 L0.612372436,21.4100239 L76.9205127,0.963319317 Z" id="Rectangle" stroke="#B6B3B2" fill="#D8D8D8" opacity="0.31"></path>
            <path d="M77.5779853,0 C76.496108,0.526315166 26.5519061,8.13518099 28.8004189,14.3654158 C31.0489317,20.5956507 35.9955308,25.221743 56.3778328,26.067925 C76.7601349,26.9141071 88.4413447,22.070707 79.4570461,18.0642721 C70.4727476,14.0578373 43.541807,13.0663252 22.3279853,17.8678665 C1.11416361,22.6694078 -4.46992143,29.5099943 11.1538217,35.3395224 C26.7775648,41.1690505 56.2816228,42.524886 74.4229167,40.3916415 C92.5642106,38.258397 90.7725533,32.4230857 71.3415846,31.0178487 C51.910616,29.6126117 23.3684007,31.8380139 11.137931,37.8295115 C-1.09253863,43.821009 8.50407192,50.5494468 32.1966229,54.8418343 C55.8891738,59.1342218 82.4846461,57.4782575 89.1639071,53.005795 C95.8431681,48.5333324 79.785082,44.2418347 55.4948223,45.8895054 C31.2045626,47.5371762 10.3268841,53.0261298 10.5779853,59 C10.8290865,64.9738702 33.071643,70.4628238 58.4948223,72.1104946 C83.9180016,73.7581653 100.462458,69.4666676 94.1639071,64.994205 C87.8653563,60.5217425 61.8296222,58.8657782 39.1966229,63.1581657 C16.5636235,67.4505532 7.29719357,74.178991 20.137931,80.1704885 C32.9786685,86.1619861 61.9919014,88.3873883 82.3415846,86.9821513 C102.691268,85.5769143 104.737664,79.741603 87.4229167,77.6083585 C70.1081694,75.475114 41.0548464,76.8309495 26.1538217,82.6604776 C11.252797,88.4900057 17.1172024,95.3305922 39.3279853,100.132134 C61.5387682,104.933675 93.1921822,103.942163 99.4570461,99.9357279 C105.72191,95.929293 92.347135,91.0858929 64.3778328,91.932075 C36.4085307,92.778257 27.8251824,97.4043493 22.8004189,103.634584 C17.7756555,109.864819 38.1813946,115.923823 41.5779853,118" id="Path" stroke="#979797" stroke-linecap="round"></path>
        </g>
    </g>
</svg>